<?xml version="1.0" encoding="UTF-8"?>
<svg id="Layer_1" xmlns="http://www.w3.org/2000/svg" version="1.1" viewBox="0 0 580 118">
  <!-- Generator: Adobe Illustrator 29.6.1, SVG Export Plug-In . SVG Version: 2.1.1 Build 9)  -->
  <defs>
    <style>
      .st0 {
        stroke: #fff;
        stroke-width: 2px;
      }

      .st1 {
        fill: #e21313;
      }
    </style>
  </defs>
  <g id="Artboard-Copy-151">
    <polygon id="Path" class="st1" points="522.98 20.6 525.57 3 548.35 3 545.89 20.6 522.98 20.6"/>
    <path id="Shape" d="M27.66,92.04c-6.64,0-11.88-.47-15.72-1.42s-6.62-2.5-8.35-4.66c-1.73-2.16-2.59-5.09-2.59-8.8,0-1.64.13-3.28.39-4.92l.39-2.85c.69-4.83,2.03-8.5,4.01-11,1.98-2.5,5.09-4.27,9.32-5.31s10.27-1.55,18.12-1.55h2.59c6.13,0,10.91.45,14.36,1.36,3.45.91,5.95,2.39,7.51,4.46h.39l.65-6.08c.17-1.55.26-2.55.26-2.98,0-2.07-.43-3.58-1.29-4.53-.86-.95-2.18-1.57-3.95-1.88-1.77-.3-4.38-.45-7.83-.45h-2.59c-4.05,0-7.14.19-9.25.58-2.11.39-3.58.99-4.4,1.81-.82.82-1.36,1.96-1.62,3.43l-.13.39H6.44l.26-1.94c.69-4.92,2.26-8.63,4.72-11.13,2.46-2.5,6.34-4.25,11.65-5.24,5.31-.99,12.92-1.49,22.84-1.49h3.11c8.2,0,14.56.54,19.09,1.62,4.53,1.08,7.85,3.04,9.96,5.89,2.11,2.85,3.17,7.03,3.17,12.55,0,2.24-.3,5.65-.91,10.22l-4.66,32.87h-22.39l1.16-6.99h-.26c-1.81,2.07-3.58,3.67-5.31,4.79-1.73,1.12-4.01,1.94-6.86,2.46-2.85.52-6.73.78-11.65.78h-2.72ZM39.69,78.19c4.66,0,8.11-.19,10.35-.58s3.8-1.04,4.66-1.94c.86-.91,1.42-2.26,1.68-4.08l.26-1.04c.09-.43.13-1.04.13-1.81,0-1.21-.39-2.14-1.16-2.78-.78-.65-2.22-1.1-4.34-1.36-2.11-.26-5.24-.39-9.38-.39h-1.42c-4.66,0-8.13.22-10.42.65s-3.86,1.1-4.72,2.01-1.42,2.26-1.68,4.08l-.13,1.04-.13,1.29c0,1.29.47,2.31,1.42,3.04.95.73,2.48,1.23,4.59,1.49,2.11.26,5.11.39,8.99.39h1.29Z"/>
    <path id="Path1" data-name="Path" d="M92.69,28.88h22.78l-1.55,9.71h.26c1.9-2.67,3.99-4.79,6.28-6.34,2.29-1.55,5-2.67,8.15-3.36,3.15-.69,7.01-1.04,11.58-1.04h1.16c6.73,0,12.12.65,16.18,1.94,4.05,1.29,7.05,3.49,8.99,6.6,1.94,3.11,2.91,7.33,2.91,12.68,0,2.24-.22,5.22-.65,8.93l-4.79,33h-22.78l4.53-32.22c.26-1.81.39-3.36.39-4.66,0-2.5-.47-4.38-1.42-5.63s-2.42-2.09-4.4-2.52-4.75-.65-8.28-.65h-1.42c-4.49,0-8.07.52-10.74,1.55-2.67,1.04-4.68,2.61-6.02,4.72-1.34,2.11-2.26,4.94-2.78,8.48l-4.4,30.93h-22.78l8.8-62.12Z"/>
    <polygon id="Shape1" data-name="Shape" points="172.21 91 181.01 28.88 203.79 28.88 194.99 91 172.21 91"/>
    <path id="Path2" data-name="Path" d="M212.39,28.88h22.78l-1.55,9.71h.26c2.33-3.36,5.39-6,9.19-7.89,3.8-1.9,8.67-2.85,14.62-2.85h1.55c7.25,0,12.7,1.06,16.37,3.17,3.67,2.11,6.06,5.54,7.18,10.29h.13c2.42-4.49,5.8-7.85,10.16-10.09s9.9-3.36,16.63-3.36h1.42c6.13,0,10.98.6,14.56,1.81,3.58,1.21,6.19,3.24,7.83,6.08,1.64,2.85,2.46,6.77,2.46,11.78,0,2.33-.3,5.82-.91,10.48l-4.66,33h-22.78l4.66-32.35c.26-1.81.39-3.36.39-4.66,0-2.33-.41-4.12-1.23-5.37s-2.01-2.11-3.56-2.59-3.62-.71-6.21-.71h-1.29c-4.4,0-7.79.47-10.16,1.42-2.37.95-4.08,2.44-5.11,4.46-1.04,2.03-1.81,4.9-2.33,8.61l-4.4,31.19h-22.78l4.53-32.35c.26-1.21.39-2.72.39-4.53,0-2.42-.41-4.27-1.23-5.56s-1.98-2.16-3.49-2.59-3.52-.65-6.02-.65h-1.29c-4.49,0-7.89.47-10.22,1.42-2.33.95-4.03,2.42-5.11,4.4s-1.88,4.92-2.39,8.8l-4.4,31.06h-22.78l8.8-62.12Z"/>
    <path id="Shape2" data-name="Shape" d="M375.61,92.04c-8.54,0-15.29-.6-20.25-1.81-4.96-1.21-8.65-3.41-11.06-6.6-2.42-3.19-3.62-7.76-3.62-13.72,0-3.36.22-6.43.65-9.19l.26-2.46c1.21-8.63,3.28-15.1,6.21-19.41,2.93-4.31,7.01-7.23,12.23-8.74s12.49-2.26,21.81-2.26h4.01c8.02,0,14.47.56,19.35,1.68s8.52,3.15,10.94,6.08c2.42,2.93,3.62,7.03,3.62,12.29,0,2.5-.17,4.83-.52,6.99l-1.29,9.71h-54.87l-.26,2.07c-.26,1.29-.39,2.37-.39,3.24,0,2.24.54,3.9,1.62,4.98s2.63,1.79,4.66,2.14c2.03.35,4.98.52,8.86.52h2.46c4.23,0,7.44-.24,9.64-.71s3.75-1.21,4.66-2.2,1.49-2.39,1.75-4.21v-.26h21.35l-.26,1.94c-.78,5.35-2.57,9.45-5.37,12.29-2.8,2.85-6.73,4.83-11.78,5.95-5.05,1.12-11.71,1.68-19.99,1.68h-4.4ZM398.12,52.82l.26-2.33c.17-.6.26-1.47.26-2.59,0-1.73-.43-3.04-1.29-3.95-.86-.91-2.26-1.55-4.21-1.94-1.94-.39-4.68-.58-8.22-.58h-2.59c-4.57,0-8.05.35-10.42,1.04-2.37.69-4.08,1.81-5.11,3.36-1.04,1.55-1.77,3.88-2.2,6.99h33.52Z"/>
    <path id="Path3" data-name="Path" class="st0" d="M414.72,113c-1.9,0-3.45-.09-4.66-.26l.39-2.2c1.38.17,2.89.26,4.53.26,2.07,0,3.69-.41,4.85-1.23,1.16-.82,2.11-2.26,2.85-4.34.73-2.07,1.4-5.13,2.01-9.19l9.45-67.16h2.72l-9.45,67.29c-.6,4.23-1.38,7.55-2.33,9.96-.95,2.42-2.24,4.16-3.88,5.24-1.64,1.08-3.8,1.62-6.47,1.62Z"/>
    <path id="Path4" data-name="Path" class="st0" d="M473.15,91.91c-8.89,0-15.57-.32-20.06-.97s-7.68-1.88-9.58-3.69c-1.9-1.81-2.85-4.62-2.85-8.41,0-1.21.06-2.31.19-3.3.13-.99.28-2.05.45-3.17h2.72c-.43,2.33-.65,4.4-.65,6.21,0,3.11.84,5.41,2.52,6.92,1.68,1.51,4.57,2.55,8.67,3.11,4.1.56,10.29.84,18.57.84h4.53c7.59,0,13.37-.47,17.34-1.42s6.77-2.42,8.41-4.4,2.72-4.83,3.24-8.54c.35-2.16.52-3.93.52-5.31,0-2.59-.8-4.55-2.39-5.89-1.6-1.34-4.44-2.26-8.54-2.78-4.1-.52-10.25-.82-18.44-.91-8.37-.09-14.73-.5-19.09-1.23-4.36-.73-7.38-1.88-9.06-3.43s-2.52-3.75-2.52-6.6c0-1.29.22-3.28.65-5.95.52-3.97,1.7-7.01,3.56-9.12,1.85-2.11,4.94-3.62,9.25-4.53,4.31-.91,10.61-1.36,18.89-1.36h3.24c7.42,0,13.16.39,17.21,1.16,4.05.78,6.99,2.11,8.8,4.01,1.81,1.9,2.72,4.62,2.72,8.15,0,1.38-.17,3.41-.52,6.08h-2.59c.35-2.42.52-4.4.52-5.95,0-2.93-.8-5.18-2.39-6.73s-4.25-2.65-7.96-3.3-9.02-.97-15.92-.97h-3.24c-7.76,0-13.61.41-17.54,1.23-3.93.82-6.69,2.11-8.28,3.88s-2.65,4.42-3.17,7.96c-.35,2.24-.52,3.93-.52,5.05,0,2.42.75,4.25,2.26,5.5s4.25,2.14,8.22,2.65,9.88.82,17.73.91c8.63.09,15.16.47,19.61,1.16,4.44.69,7.57,1.85,9.38,3.49,1.81,1.64,2.72,4.05,2.72,7.25,0,1.38-.17,3.32-.52,5.82-.6,4.31-1.88,7.64-3.82,9.96-1.94,2.33-5.09,4.01-9.45,5.05-4.36,1.04-10.5,1.55-18.44,1.55h-4.4Z"/>
  </g>
</svg>